<mxfile host="drawio-plugin" modified="2024-08-19T14:45:59.994Z" agent="5.0 (Windows NT 10.0; Win64; x64) AppleWebKit/537.36 (KHTML, like Gecko) Chrome/111.0.0.0 Safari/537.36" etag="9Q7jAO-02fEloIGo_BUR" version="20.5.3" type="embed"><diagram id="C5RBs43oDa-KdzZeNtuy" name="Page-1"><mxGraphModel dx="2869" dy="1947" grid="1" gridSize="10" guides="1" tooltips="1" connect="1" arrows="1" fold="1" page="1" pageScale="1" pageWidth="827" pageHeight="1169" math="0" shadow="0"><root><mxCell id="WIyWlLk6GJQsqaUBKTNV-0"/><mxCell id="WIyWlLk6GJQsqaUBKTNV-1" parent="WIyWlLk6GJQsqaUBKTNV-0"/><mxCell id="wbVIC9EBPA2nQBpxtLBb-5" value="" style="rounded=0;whiteSpace=wrap;html=1;" parent="WIyWlLk6GJQsqaUBKTNV-1" vertex="1"><mxGeometry x="580" y="195" width="130" height="30" as="geometry"/></mxCell><mxCell id="wbVIC9EBPA2nQBpxtLBb-6" value="CallStack" style="text;html=1;strokeColor=none;fillColor=none;align=center;verticalAlign=middle;whiteSpace=wrap;rounded=0;" parent="WIyWlLk6GJQsqaUBKTNV-1" vertex="1"><mxGeometry x="580" y="195" width="130" height="30" as="geometry"/></mxCell><mxCell id="wbVIC9EBPA2nQBpxtLBb-10" value="GlobalStrategyEngine" style="swimlane;fontStyle=0;childLayout=stackLayout;horizontal=1;startSize=30;horizontalStack=0;resizeParent=1;resizeParentMax=0;resizeLast=0;collapsible=1;marginBottom=0;whiteSpace=wrap;html=1;" parent="WIyWlLk6GJQsqaUBKTNV-1" vertex="1"><mxGeometry x="350" y="75" width="140" height="270" as="geometry"/></mxCell><mxCell id="wbVIC9EBPA2nQBpxtLBb-12" value="_Ready()" style="text;strokeColor=none;fillColor=none;align=left;verticalAlign=middle;spacingLeft=4;spacingRight=4;overflow=hidden;points=[[0,0.5],[1,0.5]];portConstraint=eastwest;rotatable=0;whiteSpace=wrap;html=1;" parent="wbVIC9EBPA2nQBpxtLBb-10" vertex="1"><mxGeometry y="30" width="140" height="30" as="geometry"/></mxCell><mxCell id="wbVIC9EBPA2nQBpxtLBb-13" value="TimeTick()" style="text;strokeColor=none;fillColor=none;align=left;verticalAlign=middle;spacingLeft=4;spacingRight=4;overflow=hidden;points=[[0,0.5],[1,0.5]];portConstraint=eastwest;rotatable=0;whiteSpace=wrap;html=1;" parent="wbVIC9EBPA2nQBpxtLBb-10" vertex="1"><mxGeometry y="60" width="140" height="30" as="geometry"/></mxCell><mxCell id="wbVIC9EBPA2nQBpxtLBb-15" value="&lt;div&gt;_Input&lt;/div&gt;" style="text;strokeColor=none;fillColor=none;align=left;verticalAlign=middle;spacingLeft=4;spacingRight=4;overflow=hidden;points=[[0,0.5],[1,0.5]];portConstraint=eastwest;rotatable=0;whiteSpace=wrap;html=1;" parent="wbVIC9EBPA2nQBpxtLBb-10" vertex="1"><mxGeometry y="90" width="140" height="30" as="geometry"/></mxCell><mxCell id="wbVIC9EBPA2nQBpxtLBb-16" value="Camera" style="text;strokeColor=none;fillColor=none;align=left;verticalAlign=middle;spacingLeft=4;spacingRight=4;overflow=hidden;points=[[0,0.5],[1,0.5]];portConstraint=eastwest;rotatable=0;whiteSpace=wrap;html=1;" parent="wbVIC9EBPA2nQBpxtLBb-10" vertex="1"><mxGeometry y="120" width="140" height="30" as="geometry"/></mxCell><mxCell id="wbVIC9EBPA2nQBpxtLBb-22" style="edgeStyle=orthogonalEdgeStyle;rounded=0;orthogonalLoop=1;jettySize=auto;html=1;exitX=0;exitY=0.5;exitDx=0;exitDy=0;entryX=0;entryY=0.5;entryDx=0;entryDy=0;" parent="wbVIC9EBPA2nQBpxtLBb-10" source="wbVIC9EBPA2nQBpxtLBb-17" target="wbVIC9EBPA2nQBpxtLBb-12" edge="1"><mxGeometry relative="1" as="geometry"/></mxCell><mxCell id="wbVIC9EBPA2nQBpxtLBb-17" value="Scenario" style="text;strokeColor=none;fillColor=none;align=left;verticalAlign=middle;spacingLeft=4;spacingRight=4;overflow=hidden;points=[[0,0.5],[1,0.5]];portConstraint=eastwest;rotatable=0;whiteSpace=wrap;html=1;" parent="wbVIC9EBPA2nQBpxtLBb-10" vertex="1"><mxGeometry y="150" width="140" height="30" as="geometry"/></mxCell><mxCell id="wbVIC9EBPA2nQBpxtLBb-18" value="OtherPlayers" style="text;strokeColor=none;fillColor=none;align=left;verticalAlign=middle;spacingLeft=4;spacingRight=4;overflow=hidden;points=[[0,0.5],[1,0.5]];portConstraint=eastwest;rotatable=0;whiteSpace=wrap;html=1;" parent="wbVIC9EBPA2nQBpxtLBb-10" vertex="1"><mxGeometry y="180" width="140" height="30" as="geometry"/></mxCell><mxCell id="1GrqpjJh9WKI_dPxwYut-0" value="ToGUIEvent()" style="text;strokeColor=none;fillColor=none;align=left;verticalAlign=middle;spacingLeft=4;spacingRight=4;overflow=hidden;points=[[0,0.5],[1,0.5]];portConstraint=eastwest;rotatable=0;whiteSpace=wrap;html=1;" parent="wbVIC9EBPA2nQBpxtLBb-10" vertex="1"><mxGeometry y="210" width="140" height="30" as="geometry"/></mxCell><mxCell id="wbVIC9EBPA2nQBpxtLBb-14" value="Event()" style="text;strokeColor=none;fillColor=none;align=left;verticalAlign=middle;spacingLeft=4;spacingRight=4;overflow=hidden;points=[[0,0.5],[1,0.5]];portConstraint=eastwest;rotatable=0;whiteSpace=wrap;html=1;" parent="wbVIC9EBPA2nQBpxtLBb-10" vertex="1"><mxGeometry y="240" width="140" height="30" as="geometry"/></mxCell><mxCell id="wbVIC9EBPA2nQBpxtLBb-23" style="edgeStyle=orthogonalEdgeStyle;rounded=0;orthogonalLoop=1;jettySize=auto;html=1;exitX=1;exitY=0.5;exitDx=0;exitDy=0;entryX=0;entryY=0.5;entryDx=0;entryDy=0;" parent="WIyWlLk6GJQsqaUBKTNV-1" source="wbVIC9EBPA2nQBpxtLBb-15" target="wbVIC9EBPA2nQBpxtLBb-6" edge="1"><mxGeometry relative="1" as="geometry"/></mxCell><mxCell id="wbVIC9EBPA2nQBpxtLBb-24" style="edgeStyle=orthogonalEdgeStyle;rounded=0;orthogonalLoop=1;jettySize=auto;html=1;exitX=1;exitY=0.5;exitDx=0;exitDy=0;entryX=0;entryY=0.5;entryDx=0;entryDy=0;" parent="WIyWlLk6GJQsqaUBKTNV-1" source="wbVIC9EBPA2nQBpxtLBb-13" target="wbVIC9EBPA2nQBpxtLBb-6" edge="1"><mxGeometry relative="1" as="geometry"/></mxCell><mxCell id="wbVIC9EBPA2nQBpxtLBb-25" style="edgeStyle=orthogonalEdgeStyle;rounded=0;orthogonalLoop=1;jettySize=auto;html=1;exitX=1;exitY=0.5;exitDx=0;exitDy=0;entryX=0;entryY=0.5;entryDx=0;entryDy=0;" parent="WIyWlLk6GJQsqaUBKTNV-1" source="wbVIC9EBPA2nQBpxtLBb-12" target="wbVIC9EBPA2nQBpxtLBb-6" edge="1"><mxGeometry relative="1" as="geometry"/></mxCell><mxCell id="wbVIC9EBPA2nQBpxtLBb-54" style="edgeStyle=orthogonalEdgeStyle;rounded=0;orthogonalLoop=1;jettySize=auto;html=1;entryX=1;entryY=0.25;entryDx=0;entryDy=0;exitX=-0.007;exitY=0.071;exitDx=0;exitDy=0;exitPerimeter=0;fillColor=#f8cecc;strokeColor=#b85450;" parent="WIyWlLk6GJQsqaUBKTNV-1" source="wbVIC9EBPA2nQBpxtLBb-35" target="wbVIC9EBPA2nQBpxtLBb-41" edge="1"><mxGeometry relative="1" as="geometry"/></mxCell><mxCell id="wbVIC9EBPA2nQBpxtLBb-58" style="edgeStyle=orthogonalEdgeStyle;rounded=0;orthogonalLoop=1;jettySize=auto;html=1;entryX=1;entryY=0.25;entryDx=0;entryDy=0;exitX=-0.002;exitY=0.071;exitDx=0;exitDy=0;exitPerimeter=0;fillColor=#f8cecc;strokeColor=#b85450;" parent="WIyWlLk6GJQsqaUBKTNV-1" source="wbVIC9EBPA2nQBpxtLBb-35" target="wbVIC9EBPA2nQBpxtLBb-56" edge="1"><mxGeometry relative="1" as="geometry"/></mxCell><mxCell id="wbVIC9EBPA2nQBpxtLBb-35" value="Handler" style="swimlane;fontStyle=0;childLayout=stackLayout;horizontal=1;startSize=30;horizontalStack=0;resizeParent=1;resizeParentMax=0;resizeLast=0;collapsible=1;marginBottom=0;whiteSpace=wrap;html=1;fillColor=#f8cecc;strokeColor=#b85450;" parent="WIyWlLk6GJQsqaUBKTNV-1" vertex="1"><mxGeometry x="1100" y="80" width="180" height="240" as="geometry"/></mxCell><mxCell id="wbVIC9EBPA2nQBpxtLBb-36" value="Init(Scenario)" style="text;strokeColor=none;fillColor=none;align=left;verticalAlign=middle;spacingLeft=4;spacingRight=4;overflow=hidden;points=[[0,0.5],[1,0.5]];portConstraint=eastwest;rotatable=0;whiteSpace=wrap;html=1;" parent="wbVIC9EBPA2nQBpxtLBb-35" vertex="1"><mxGeometry y="30" width="180" height="30" as="geometry"/></mxCell><mxCell id="wbVIC9EBPA2nQBpxtLBb-37" value="TimeHandler" style="text;strokeColor=none;fillColor=none;align=left;verticalAlign=middle;spacingLeft=4;spacingRight=4;overflow=hidden;points=[[0,0.5],[1,0.5]];portConstraint=eastwest;rotatable=0;whiteSpace=wrap;html=1;" parent="wbVIC9EBPA2nQBpxtLBb-35" vertex="1"><mxGeometry y="60" width="180" height="30" as="geometry"/></mxCell><mxCell id="wbVIC9EBPA2nQBpxtLBb-39" value="InputHandle" style="text;strokeColor=none;fillColor=none;align=left;verticalAlign=middle;spacingLeft=4;spacingRight=4;overflow=hidden;points=[[0,0.5],[1,0.5]];portConstraint=eastwest;rotatable=0;whiteSpace=wrap;html=1;" parent="wbVIC9EBPA2nQBpxtLBb-35" vertex="1"><mxGeometry y="90" width="180" height="30" as="geometry"/></mxCell><mxCell id="wbVIC9EBPA2nQBpxtLBb-38" value="ViewModeUpdate(Maptype, Zoom)" style="text;strokeColor=none;fillColor=none;align=left;verticalAlign=middle;spacingLeft=4;spacingRight=4;overflow=hidden;points=[[0,0.5],[1,0.5]];portConstraint=eastwest;rotatable=0;whiteSpace=wrap;html=1;" parent="wbVIC9EBPA2nQBpxtLBb-35" vertex="1"><mxGeometry y="120" width="180" height="30" as="geometry"/></mxCell><mxCell id="wbVIC9EBPA2nQBpxtLBb-52" value="GUIInteractionHandler" style="text;strokeColor=none;fillColor=none;align=left;verticalAlign=middle;spacingLeft=4;spacingRight=4;overflow=hidden;points=[[0,0.5],[1,0.5]];portConstraint=eastwest;rotatable=0;whiteSpace=wrap;html=1;" parent="wbVIC9EBPA2nQBpxtLBb-35" vertex="1"><mxGeometry y="150" width="180" height="30" as="geometry"/></mxCell><mxCell id="wbVIC9EBPA2nQBpxtLBb-40" value="Scenario" style="text;strokeColor=none;fillColor=none;align=left;verticalAlign=middle;spacingLeft=4;spacingRight=4;overflow=hidden;points=[[0,0.5],[1,0.5]];portConstraint=eastwest;rotatable=0;whiteSpace=wrap;html=1;" parent="wbVIC9EBPA2nQBpxtLBb-35" vertex="1"><mxGeometry y="180" width="180" height="30" as="geometry"/></mxCell><mxCell id="1GrqpjJh9WKI_dPxwYut-1" value="InvokeToGUIEvent()" style="text;strokeColor=none;fillColor=none;align=left;verticalAlign=middle;spacingLeft=4;spacingRight=4;overflow=hidden;points=[[0,0.5],[1,0.5]];portConstraint=eastwest;rotatable=0;whiteSpace=wrap;html=1;" parent="wbVIC9EBPA2nQBpxtLBb-35" vertex="1"><mxGeometry y="210" width="180" height="30" as="geometry"/></mxCell><mxCell id="wbVIC9EBPA2nQBpxtLBb-41" value="MapHandler" style="swimlane;fontStyle=0;childLayout=stackLayout;horizontal=1;startSize=30;horizontalStack=0;resizeParent=1;resizeParentMax=0;resizeLast=0;collapsible=1;marginBottom=0;whiteSpace=wrap;html=1;" parent="WIyWlLk6GJQsqaUBKTNV-1" vertex="1"><mxGeometry x="800" y="130" width="140" height="60" as="geometry"/></mxCell><mxCell id="wbVIC9EBPA2nQBpxtLBb-42" value="TextUpdate()" style="text;strokeColor=none;fillColor=none;align=left;verticalAlign=middle;spacingLeft=4;spacingRight=4;overflow=hidden;points=[[0,0.5],[1,0.5]];portConstraint=eastwest;rotatable=0;whiteSpace=wrap;html=1;" parent="wbVIC9EBPA2nQBpxtLBb-41" vertex="1"><mxGeometry y="30" width="140" height="30" as="geometry"/></mxCell><mxCell id="wbVIC9EBPA2nQBpxtLBb-53" style="edgeStyle=orthogonalEdgeStyle;rounded=0;orthogonalLoop=1;jettySize=auto;html=1;exitX=0.5;exitY=0;exitDx=0;exitDy=0;entryX=1;entryY=0.5;entryDx=0;entryDy=0;fillColor=#f8cecc;strokeColor=#b85450;" parent="WIyWlLk6GJQsqaUBKTNV-1" source="wbVIC9EBPA2nQBpxtLBb-46" target="wbVIC9EBPA2nQBpxtLBb-37" edge="1"><mxGeometry relative="1" as="geometry"/></mxCell><mxCell id="wbVIC9EBPA2nQBpxtLBb-46" value="TimeHandler" style="swimlane;fontStyle=0;childLayout=stackLayout;horizontal=1;startSize=30;horizontalStack=0;resizeParent=1;resizeParentMax=0;resizeLast=0;collapsible=1;marginBottom=0;whiteSpace=wrap;html=1;fillColor=#f8cecc;strokeColor=#b85450;" parent="WIyWlLk6GJQsqaUBKTNV-1" vertex="1"><mxGeometry x="1430" y="120" width="180" height="120" as="geometry"/></mxCell><mxCell id="wbVIC9EBPA2nQBpxtLBb-47" value="DayTick()" style="text;strokeColor=none;fillColor=none;align=left;verticalAlign=middle;spacingLeft=4;spacingRight=4;overflow=hidden;points=[[0,0.5],[1,0.5]];portConstraint=eastwest;rotatable=0;whiteSpace=wrap;html=1;" parent="wbVIC9EBPA2nQBpxtLBb-46" vertex="1"><mxGeometry y="30" width="180" height="30" as="geometry"/></mxCell><mxCell id="wbVIC9EBPA2nQBpxtLBb-48" value="MonthTick()" style="text;strokeColor=none;fillColor=none;align=left;verticalAlign=middle;spacingLeft=4;spacingRight=4;overflow=hidden;points=[[0,0.5],[1,0.5]];portConstraint=eastwest;rotatable=0;whiteSpace=wrap;html=1;" parent="wbVIC9EBPA2nQBpxtLBb-46" vertex="1"><mxGeometry y="60" width="180" height="30" as="geometry"/></mxCell><mxCell id="wbVIC9EBPA2nQBpxtLBb-49" value="YearTick" style="text;strokeColor=none;fillColor=none;align=left;verticalAlign=middle;spacingLeft=4;spacingRight=4;overflow=hidden;points=[[0,0.5],[1,0.5]];portConstraint=eastwest;rotatable=0;whiteSpace=wrap;html=1;" parent="wbVIC9EBPA2nQBpxtLBb-46" vertex="1"><mxGeometry y="90" width="180" height="30" as="geometry"/></mxCell><mxCell id="wbVIC9EBPA2nQBpxtLBb-56" value="ArmyHandler" style="swimlane;fontStyle=0;childLayout=stackLayout;horizontal=1;startSize=30;horizontalStack=0;resizeParent=1;resizeParentMax=0;resizeLast=0;collapsible=1;marginBottom=0;whiteSpace=wrap;html=1;" parent="WIyWlLk6GJQsqaUBKTNV-1" vertex="1"><mxGeometry x="800" y="230" width="140" height="60" as="geometry"/></mxCell><mxCell id="wbVIC9EBPA2nQBpxtLBb-57" value="ArmyUnit[]" style="text;strokeColor=none;fillColor=none;align=left;verticalAlign=middle;spacingLeft=4;spacingRight=4;overflow=hidden;points=[[0,0.5],[1,0.5]];portConstraint=eastwest;rotatable=0;whiteSpace=wrap;html=1;" parent="wbVIC9EBPA2nQBpxtLBb-56" vertex="1"><mxGeometry y="30" width="140" height="30" as="geometry"/></mxCell><mxCell id="wbVIC9EBPA2nQBpxtLBb-66" style="edgeStyle=orthogonalEdgeStyle;rounded=0;orthogonalLoop=1;jettySize=auto;html=1;exitX=0.493;exitY=1.233;exitDx=0;exitDy=0;entryX=0;entryY=0.5;entryDx=0;entryDy=0;exitPerimeter=0;" parent="WIyWlLk6GJQsqaUBKTNV-1" source="wbVIC9EBPA2nQBpxtLBb-64" target="wbVIC9EBPA2nQBpxtLBb-17" edge="1"><mxGeometry relative="1" as="geometry"><Array as="points"><mxPoint x="289" y="-440"/><mxPoint x="290" y="-212"/><mxPoint x="140" y="-212"/><mxPoint x="140" y="240"/></Array></mxGeometry></mxCell><mxCell id="wbVIC9EBPA2nQBpxtLBb-61" value="Scenario" style="swimlane;fontStyle=0;childLayout=stackLayout;horizontal=1;startSize=30;horizontalStack=0;resizeParent=1;resizeParentMax=0;resizeLast=0;collapsible=1;marginBottom=0;whiteSpace=wrap;html=1;" parent="WIyWlLk6GJQsqaUBKTNV-1" vertex="1"><mxGeometry x="220" y="-800" width="140" height="120" as="geometry"/></mxCell><mxCell id="wbVIC9EBPA2nQBpxtLBb-62" value="List&amp;lt;CountryData&amp;gt;" style="text;strokeColor=none;fillColor=none;align=left;verticalAlign=middle;spacingLeft=4;spacingRight=4;overflow=hidden;points=[[0,0.5],[1,0.5]];portConstraint=eastwest;rotatable=0;whiteSpace=wrap;html=1;" parent="wbVIC9EBPA2nQBpxtLBb-61" vertex="1"><mxGeometry y="30" width="140" height="30" as="geometry"/></mxCell><mxCell id="wbVIC9EBPA2nQBpxtLBb-63" value="List&amp;lt;ArmyUnitData&amp;gt;" style="text;strokeColor=none;fillColor=none;align=left;verticalAlign=middle;spacingLeft=4;spacingRight=4;overflow=hidden;points=[[0,0.5],[1,0.5]];portConstraint=eastwest;rotatable=0;whiteSpace=wrap;html=1;" parent="wbVIC9EBPA2nQBpxtLBb-61" vertex="1"><mxGeometry y="60" width="140" height="30" as="geometry"/></mxCell><mxCell id="wbVIC9EBPA2nQBpxtLBb-64" value="ProvinceData[]" style="text;strokeColor=none;fillColor=none;align=left;verticalAlign=middle;spacingLeft=4;spacingRight=4;overflow=hidden;points=[[0,0.5],[1,0.5]];portConstraint=eastwest;rotatable=0;whiteSpace=wrap;html=1;" parent="wbVIC9EBPA2nQBpxtLBb-61" vertex="1"><mxGeometry y="90" width="140" height="30" as="geometry"/></mxCell><mxCell id="wbVIC9EBPA2nQBpxtLBb-65" style="edgeStyle=orthogonalEdgeStyle;rounded=0;orthogonalLoop=1;jettySize=auto;html=1;entryX=0;entryY=0.5;entryDx=0;entryDy=0;exitX=1;exitY=0.5;exitDx=0;exitDy=0;" parent="WIyWlLk6GJQsqaUBKTNV-1" source="wbVIC9EBPA2nQBpxtLBb-17" target="wbVIC9EBPA2nQBpxtLBb-40" edge="1"><mxGeometry relative="1" as="geometry"><Array as="points"><mxPoint x="570" y="240"/><mxPoint x="570" y="270"/><mxPoint x="700" y="270"/><mxPoint x="700" y="350"/><mxPoint x="980" y="350"/><mxPoint x="980" y="275"/></Array></mxGeometry></mxCell><mxCell id="wbVIC9EBPA2nQBpxtLBb-80" style="edgeStyle=orthogonalEdgeStyle;rounded=0;orthogonalLoop=1;jettySize=auto;html=1;exitX=0.002;exitY=0.109;exitDx=0;exitDy=0;entryX=1;entryY=0.5;entryDx=0;entryDy=0;exitPerimeter=0;" parent="WIyWlLk6GJQsqaUBKTNV-1" source="wbVIC9EBPA2nQBpxtLBb-68" target="wbVIC9EBPA2nQBpxtLBb-62" edge="1"><mxGeometry relative="1" as="geometry"/></mxCell><mxCell id="wbVIC9EBPA2nQBpxtLBb-68" value="ProvinceData" style="swimlane;fontStyle=0;childLayout=stackLayout;horizontal=1;startSize=30;horizontalStack=0;resizeParent=1;resizeParentMax=0;resizeLast=0;collapsible=1;marginBottom=0;whiteSpace=wrap;html=1;" parent="WIyWlLk6GJQsqaUBKTNV-1" vertex="1"><mxGeometry x="470" y="-850" width="140" height="330" as="geometry"/></mxCell><mxCell id="wbVIC9EBPA2nQBpxtLBb-69" value="Id" style="text;strokeColor=none;fillColor=none;align=left;verticalAlign=middle;spacingLeft=4;spacingRight=4;overflow=hidden;points=[[0,0.5],[1,0.5]];portConstraint=eastwest;rotatable=0;whiteSpace=wrap;html=1;" parent="wbVIC9EBPA2nQBpxtLBb-68" vertex="1"><mxGeometry y="30" width="140" height="30" as="geometry"/></mxCell><mxCell id="wbVIC9EBPA2nQBpxtLBb-113" value="Name" style="text;strokeColor=none;fillColor=none;align=left;verticalAlign=middle;spacingLeft=4;spacingRight=4;overflow=hidden;points=[[0,0.5],[1,0.5]];portConstraint=eastwest;rotatable=0;whiteSpace=wrap;html=1;" parent="wbVIC9EBPA2nQBpxtLBb-68" vertex="1"><mxGeometry y="60" width="140" height="30" as="geometry"/></mxCell><mxCell id="wbVIC9EBPA2nQBpxtLBb-107" value="OwnerId" style="text;strokeColor=none;fillColor=none;align=left;verticalAlign=middle;spacingLeft=4;spacingRight=4;overflow=hidden;points=[[0,0.5],[1,0.5]];portConstraint=eastwest;rotatable=0;whiteSpace=wrap;html=1;" parent="wbVIC9EBPA2nQBpxtLBb-68" vertex="1"><mxGeometry y="90" width="140" height="30" as="geometry"/></mxCell><mxCell id="wbVIC9EBPA2nQBpxtLBb-70" value="Building[]" style="text;strokeColor=none;fillColor=none;align=left;verticalAlign=middle;spacingLeft=4;spacingRight=4;overflow=hidden;points=[[0,0.5],[1,0.5]];portConstraint=eastwest;rotatable=0;whiteSpace=wrap;html=1;" parent="wbVIC9EBPA2nQBpxtLBb-68" vertex="1"><mxGeometry y="120" width="140" height="30" as="geometry"/></mxCell><mxCell id="wbVIC9EBPA2nQBpxtLBb-106" value="BorderProvinces[]" style="text;strokeColor=none;fillColor=none;align=left;verticalAlign=middle;spacingLeft=4;spacingRight=4;overflow=hidden;points=[[0,0.5],[1,0.5]];portConstraint=eastwest;rotatable=0;whiteSpace=wrap;html=1;" parent="wbVIC9EBPA2nQBpxtLBb-68" vertex="1"><mxGeometry y="150" width="140" height="30" as="geometry"/></mxCell><mxCell id="wbVIC9EBPA2nQBpxtLBb-109" value="Good" style="text;strokeColor=none;fillColor=none;align=left;verticalAlign=middle;spacingLeft=4;spacingRight=4;overflow=hidden;points=[[0,0.5],[1,0.5]];portConstraint=eastwest;rotatable=0;whiteSpace=wrap;html=1;" parent="wbVIC9EBPA2nQBpxtLBb-68" vertex="1"><mxGeometry y="180" width="140" height="30" as="geometry"/></mxCell><mxCell id="wbVIC9EBPA2nQBpxtLBb-110" value="Terrain" style="text;strokeColor=none;fillColor=none;align=left;verticalAlign=middle;spacingLeft=4;spacingRight=4;overflow=hidden;points=[[0,0.5],[1,0.5]];portConstraint=eastwest;rotatable=0;whiteSpace=wrap;html=1;" parent="wbVIC9EBPA2nQBpxtLBb-68" vertex="1"><mxGeometry y="210" width="140" height="30" as="geometry"/></mxCell><mxCell id="wbVIC9EBPA2nQBpxtLBb-112" value="Developement" style="text;strokeColor=none;fillColor=none;align=left;verticalAlign=middle;spacingLeft=4;spacingRight=4;overflow=hidden;points=[[0,0.5],[1,0.5]];portConstraint=eastwest;rotatable=0;whiteSpace=wrap;html=1;" parent="wbVIC9EBPA2nQBpxtLBb-68" vertex="1"><mxGeometry y="240" width="140" height="30" as="geometry"/></mxCell><mxCell id="wbVIC9EBPA2nQBpxtLBb-111" value="CenterOfWeight" style="text;strokeColor=none;fillColor=none;align=left;verticalAlign=middle;spacingLeft=4;spacingRight=4;overflow=hidden;points=[[0,0.5],[1,0.5]];portConstraint=eastwest;rotatable=0;whiteSpace=wrap;html=1;" parent="wbVIC9EBPA2nQBpxtLBb-68" vertex="1"><mxGeometry y="270" width="140" height="30" as="geometry"/></mxCell><mxCell id="wbVIC9EBPA2nQBpxtLBb-71" value="Modifiers" style="text;strokeColor=none;fillColor=none;align=left;verticalAlign=middle;spacingLeft=4;spacingRight=4;overflow=hidden;points=[[0,0.5],[1,0.5]];portConstraint=eastwest;rotatable=0;whiteSpace=wrap;html=1;" parent="wbVIC9EBPA2nQBpxtLBb-68" vertex="1"><mxGeometry y="300" width="140" height="30" as="geometry"/></mxCell><mxCell id="wbVIC9EBPA2nQBpxtLBb-72" value="ArmyUnitData" style="swimlane;fontStyle=0;childLayout=stackLayout;horizontal=1;startSize=30;horizontalStack=0;resizeParent=1;resizeParentMax=0;resizeLast=0;collapsible=1;marginBottom=0;whiteSpace=wrap;html=1;" parent="WIyWlLk6GJQsqaUBKTNV-1" vertex="1"><mxGeometry x="470" y="-480" width="140" height="150" as="geometry"/></mxCell><mxCell id="wbVIC9EBPA2nQBpxtLBb-73" value="Id" style="text;strokeColor=none;fillColor=none;align=left;verticalAlign=middle;spacingLeft=4;spacingRight=4;overflow=hidden;points=[[0,0.5],[1,0.5]];portConstraint=eastwest;rotatable=0;whiteSpace=wrap;html=1;" parent="wbVIC9EBPA2nQBpxtLBb-72" vertex="1"><mxGeometry y="30" width="140" height="30" as="geometry"/></mxCell><mxCell id="wbVIC9EBPA2nQBpxtLBb-74" value="Modifiers" style="text;strokeColor=none;fillColor=none;align=left;verticalAlign=middle;spacingLeft=4;spacingRight=4;overflow=hidden;points=[[0,0.5],[1,0.5]];portConstraint=eastwest;rotatable=0;whiteSpace=wrap;html=1;" parent="wbVIC9EBPA2nQBpxtLBb-72" vertex="1"><mxGeometry y="60" width="140" height="30" as="geometry"/></mxCell><mxCell id="wbVIC9EBPA2nQBpxtLBb-114" value="CurrentProvince" style="text;strokeColor=none;fillColor=none;align=left;verticalAlign=middle;spacingLeft=4;spacingRight=4;overflow=hidden;points=[[0,0.5],[1,0.5]];portConstraint=eastwest;rotatable=0;whiteSpace=wrap;html=1;" parent="wbVIC9EBPA2nQBpxtLBb-72" vertex="1"><mxGeometry y="90" width="140" height="30" as="geometry"/></mxCell><mxCell id="wbVIC9EBPA2nQBpxtLBb-75" value="Owner" style="text;strokeColor=none;fillColor=none;align=left;verticalAlign=middle;spacingLeft=4;spacingRight=4;overflow=hidden;points=[[0,0.5],[1,0.5]];portConstraint=eastwest;rotatable=0;whiteSpace=wrap;html=1;" parent="wbVIC9EBPA2nQBpxtLBb-72" vertex="1"><mxGeometry y="120" width="140" height="30" as="geometry"/></mxCell><mxCell id="wbVIC9EBPA2nQBpxtLBb-76" value="CountryData" style="swimlane;fontStyle=0;childLayout=stackLayout;horizontal=1;startSize=30;horizontalStack=0;resizeParent=1;resizeParentMax=0;resizeLast=0;collapsible=1;marginBottom=0;whiteSpace=wrap;html=1;" parent="WIyWlLk6GJQsqaUBKTNV-1" vertex="1"><mxGeometry x="470" y="-290" width="140" height="150" as="geometry"/></mxCell><mxCell id="wbVIC9EBPA2nQBpxtLBb-77" value="Id" style="text;strokeColor=none;fillColor=none;align=left;verticalAlign=middle;spacingLeft=4;spacingRight=4;overflow=hidden;points=[[0,0.5],[1,0.5]];portConstraint=eastwest;rotatable=0;whiteSpace=wrap;html=1;" parent="wbVIC9EBPA2nQBpxtLBb-76" vertex="1"><mxGeometry y="30" width="140" height="30" as="geometry"/></mxCell><mxCell id="wbVIC9EBPA2nQBpxtLBb-78" value="Modifiers" style="text;strokeColor=none;fillColor=none;align=left;verticalAlign=middle;spacingLeft=4;spacingRight=4;overflow=hidden;points=[[0,0.5],[1,0.5]];portConstraint=eastwest;rotatable=0;whiteSpace=wrap;html=1;" parent="wbVIC9EBPA2nQBpxtLBb-76" vertex="1"><mxGeometry y="60" width="140" height="30" as="geometry"/></mxCell><mxCell id="wbVIC9EBPA2nQBpxtLBb-115" value="Name" style="text;strokeColor=none;fillColor=none;align=left;verticalAlign=middle;spacingLeft=4;spacingRight=4;overflow=hidden;points=[[0,0.5],[1,0.5]];portConstraint=eastwest;rotatable=0;whiteSpace=wrap;html=1;" parent="wbVIC9EBPA2nQBpxtLBb-76" vertex="1"><mxGeometry y="90" width="140" height="30" as="geometry"/></mxCell><mxCell id="wbVIC9EBPA2nQBpxtLBb-79" value="Cash" style="text;strokeColor=none;fillColor=none;align=left;verticalAlign=middle;spacingLeft=4;spacingRight=4;overflow=hidden;points=[[0,0.5],[1,0.5]];portConstraint=eastwest;rotatable=0;whiteSpace=wrap;html=1;" parent="wbVIC9EBPA2nQBpxtLBb-76" vertex="1"><mxGeometry y="120" width="140" height="30" as="geometry"/></mxCell><mxCell id="wbVIC9EBPA2nQBpxtLBb-81" style="edgeStyle=orthogonalEdgeStyle;rounded=0;orthogonalLoop=1;jettySize=auto;html=1;exitX=-0.006;exitY=0.123;exitDx=0;exitDy=0;entryX=1;entryY=0.5;entryDx=0;entryDy=0;exitPerimeter=0;" parent="WIyWlLk6GJQsqaUBKTNV-1" source="wbVIC9EBPA2nQBpxtLBb-72" target="wbVIC9EBPA2nQBpxtLBb-63" edge="1"><mxGeometry relative="1" as="geometry"><mxPoint x="480" y="-797" as="sourcePoint"/><mxPoint x="370" y="-745" as="targetPoint"/></mxGeometry></mxCell><mxCell id="wbVIC9EBPA2nQBpxtLBb-82" style="edgeStyle=orthogonalEdgeStyle;rounded=0;orthogonalLoop=1;jettySize=auto;html=1;exitX=-0.006;exitY=0.127;exitDx=0;exitDy=0;entryX=1;entryY=0.5;entryDx=0;entryDy=0;exitPerimeter=0;" parent="WIyWlLk6GJQsqaUBKTNV-1" source="wbVIC9EBPA2nQBpxtLBb-76" target="wbVIC9EBPA2nQBpxtLBb-64" edge="1"><mxGeometry relative="1" as="geometry"><mxPoint x="479" y="-635" as="sourcePoint"/><mxPoint x="370" y="-715" as="targetPoint"/></mxGeometry></mxCell><mxCell id="wbVIC9EBPA2nQBpxtLBb-83" value="Building" style="swimlane;fontStyle=0;childLayout=stackLayout;horizontal=1;startSize=30;horizontalStack=0;resizeParent=1;resizeParentMax=0;resizeLast=0;collapsible=1;marginBottom=0;whiteSpace=wrap;html=1;fillColor=#f8cecc;strokeColor=#b85450;" parent="WIyWlLk6GJQsqaUBKTNV-1" vertex="1"><mxGeometry x="1050" y="-840" width="180" height="270" as="geometry"/></mxCell><mxCell id="wbVIC9EBPA2nQBpxtLBb-84" value="Name" style="text;strokeColor=none;fillColor=none;align=left;verticalAlign=middle;spacingLeft=4;spacingRight=4;overflow=hidden;points=[[0,0.5],[1,0.5]];portConstraint=eastwest;rotatable=0;whiteSpace=wrap;html=1;" parent="wbVIC9EBPA2nQBpxtLBb-83" vertex="1"><mxGeometry y="30" width="180" height="30" as="geometry"/></mxCell><mxCell id="wbVIC9EBPA2nQBpxtLBb-85" value="Id" style="text;strokeColor=none;fillColor=none;align=left;verticalAlign=middle;spacingLeft=4;spacingRight=4;overflow=hidden;points=[[0,0.5],[1,0.5]];portConstraint=eastwest;rotatable=0;whiteSpace=wrap;html=1;" parent="wbVIC9EBPA2nQBpxtLBb-83" vertex="1"><mxGeometry y="60" width="180" height="30" as="geometry"/></mxCell><mxCell id="wbVIC9EBPA2nQBpxtLBb-88" value="Cost" style="text;strokeColor=none;fillColor=none;align=left;verticalAlign=middle;spacingLeft=4;spacingRight=4;overflow=hidden;points=[[0,0.5],[1,0.5]];portConstraint=eastwest;rotatable=0;whiteSpace=wrap;html=1;" parent="wbVIC9EBPA2nQBpxtLBb-83" vertex="1"><mxGeometry y="90" width="180" height="30" as="geometry"/></mxCell><mxCell id="wbVIC9EBPA2nQBpxtLBb-89" value="Modifiers" style="text;strokeColor=none;fillColor=none;align=left;verticalAlign=middle;spacingLeft=4;spacingRight=4;overflow=hidden;points=[[0,0.5],[1,0.5]];portConstraint=eastwest;rotatable=0;whiteSpace=wrap;html=1;" parent="wbVIC9EBPA2nQBpxtLBb-83" vertex="1"><mxGeometry y="120" width="180" height="30" as="geometry"/></mxCell><mxCell id="wbVIC9EBPA2nQBpxtLBb-90" value="BuildingTime" style="text;strokeColor=none;fillColor=none;align=left;verticalAlign=middle;spacingLeft=4;spacingRight=4;overflow=hidden;points=[[0,0.5],[1,0.5]];portConstraint=eastwest;rotatable=0;whiteSpace=wrap;html=1;" parent="wbVIC9EBPA2nQBpxtLBb-83" vertex="1"><mxGeometry y="150" width="180" height="30" as="geometry"/></mxCell><mxCell id="wbVIC9EBPA2nQBpxtLBb-91" value="IsFinished" style="text;strokeColor=none;fillColor=none;align=left;verticalAlign=middle;spacingLeft=4;spacingRight=4;overflow=hidden;points=[[0,0.5],[1,0.5]];portConstraint=eastwest;rotatable=0;whiteSpace=wrap;html=1;" parent="wbVIC9EBPA2nQBpxtLBb-83" vertex="1"><mxGeometry y="180" width="180" height="30" as="geometry"/></mxCell><mxCell id="wbVIC9EBPA2nQBpxtLBb-100" value="TimeToBuild" style="text;strokeColor=none;fillColor=none;align=left;verticalAlign=middle;spacingLeft=4;spacingRight=4;overflow=hidden;points=[[0,0.5],[1,0.5]];portConstraint=eastwest;rotatable=0;whiteSpace=wrap;html=1;" parent="wbVIC9EBPA2nQBpxtLBb-83" vertex="1"><mxGeometry y="210" width="180" height="30" as="geometry"/></mxCell><mxCell id="wbVIC9EBPA2nQBpxtLBb-86" value="&lt;font color=&quot;#ff66b3&quot;&gt;Buildings[]&lt;/font&gt;" style="text;strokeColor=none;fillColor=none;align=left;verticalAlign=middle;spacingLeft=4;spacingRight=4;overflow=hidden;points=[[0,0.5],[1,0.5]];portConstraint=eastwest;rotatable=0;whiteSpace=wrap;html=1;" parent="wbVIC9EBPA2nQBpxtLBb-83" vertex="1"><mxGeometry y="240" width="180" height="30" as="geometry"/></mxCell><mxCell id="wbVIC9EBPA2nQBpxtLBb-87" style="edgeStyle=orthogonalEdgeStyle;rounded=0;orthogonalLoop=1;jettySize=auto;html=1;entryX=1;entryY=0.5;entryDx=0;entryDy=0;exitX=-0.001;exitY=0.065;exitDx=0;exitDy=0;exitPerimeter=0;fillColor=#f8cecc;strokeColor=#b85450;" parent="WIyWlLk6GJQsqaUBKTNV-1" source="wbVIC9EBPA2nQBpxtLBb-83" target="wbVIC9EBPA2nQBpxtLBb-70" edge="1"><mxGeometry relative="1" as="geometry"/></mxCell><mxCell id="wbVIC9EBPA2nQBpxtLBb-101" style="edgeStyle=orthogonalEdgeStyle;rounded=0;orthogonalLoop=1;jettySize=auto;html=1;exitX=1;exitY=0.25;exitDx=0;exitDy=0;entryX=0;entryY=0.5;entryDx=0;entryDy=0;" parent="WIyWlLk6GJQsqaUBKTNV-1" source="wbVIC9EBPA2nQBpxtLBb-92" target="wbVIC9EBPA2nQBpxtLBb-89" edge="1"><mxGeometry relative="1" as="geometry"/></mxCell><mxCell id="wbVIC9EBPA2nQBpxtLBb-103" style="edgeStyle=orthogonalEdgeStyle;rounded=0;orthogonalLoop=1;jettySize=auto;html=1;exitX=-0.002;exitY=0.155;exitDx=0;exitDy=0;entryX=1;entryY=0.5;entryDx=0;entryDy=0;exitPerimeter=0;" parent="WIyWlLk6GJQsqaUBKTNV-1" source="wbVIC9EBPA2nQBpxtLBb-92" target="46" edge="1"><mxGeometry relative="1" as="geometry"><Array as="points"><mxPoint x="690" y="-656"/><mxPoint x="690" y="-740"/><mxPoint x="860" y="-740"/><mxPoint x="860" y="-785"/></Array></mxGeometry></mxCell><mxCell id="wbVIC9EBPA2nQBpxtLBb-104" style="edgeStyle=orthogonalEdgeStyle;rounded=0;orthogonalLoop=1;jettySize=auto;html=1;exitX=-0.01;exitY=0.155;exitDx=0;exitDy=0;entryX=1;entryY=0.5;entryDx=0;entryDy=0;exitPerimeter=0;" parent="WIyWlLk6GJQsqaUBKTNV-1" source="wbVIC9EBPA2nQBpxtLBb-92" target="wbVIC9EBPA2nQBpxtLBb-74" edge="1"><mxGeometry relative="1" as="geometry"><Array as="points"><mxPoint x="690" y="-656"/><mxPoint x="690" y="-405"/></Array></mxGeometry></mxCell><mxCell id="wbVIC9EBPA2nQBpxtLBb-105" style="edgeStyle=orthogonalEdgeStyle;rounded=0;orthogonalLoop=1;jettySize=auto;html=1;entryX=1;entryY=0.5;entryDx=0;entryDy=0;exitX=0.002;exitY=0.155;exitDx=0;exitDy=0;exitPerimeter=0;" parent="WIyWlLk6GJQsqaUBKTNV-1" source="wbVIC9EBPA2nQBpxtLBb-92" target="wbVIC9EBPA2nQBpxtLBb-78" edge="1"><mxGeometry relative="1" as="geometry"/></mxCell><mxCell id="wbVIC9EBPA2nQBpxtLBb-92" value="Modifiers" style="swimlane;fontStyle=0;childLayout=stackLayout;horizontal=1;startSize=30;horizontalStack=0;resizeParent=1;resizeParentMax=0;resizeLast=0;collapsible=1;marginBottom=0;whiteSpace=wrap;html=1;" parent="WIyWlLk6GJQsqaUBKTNV-1" vertex="1"><mxGeometry x="770" y="-670" width="180" height="90" as="geometry"/></mxCell><mxCell id="wbVIC9EBPA2nQBpxtLBb-93" value="ProductionEfficiency" style="text;align=left;verticalAlign=middle;spacingLeft=4;spacingRight=4;overflow=hidden;points=[[0,0.5],[1,0.5]];portConstraint=eastwest;rotatable=0;whiteSpace=wrap;html=1;" parent="wbVIC9EBPA2nQBpxtLBb-92" vertex="1"><mxGeometry y="30" width="180" height="30" as="geometry"/></mxCell><mxCell id="wbVIC9EBPA2nQBpxtLBb-94" value="TransportationCapacity" style="text;align=left;verticalAlign=middle;spacingLeft=4;spacingRight=4;overflow=hidden;points=[[0,0.5],[1,0.5]];portConstraint=eastwest;rotatable=0;whiteSpace=wrap;html=1;" parent="wbVIC9EBPA2nQBpxtLBb-92" vertex="1"><mxGeometry y="60" width="180" height="30" as="geometry"/></mxCell><mxCell id="wbVIC9EBPA2nQBpxtLBb-120" value="" style="rounded=0;whiteSpace=wrap;html=1;" parent="WIyWlLk6GJQsqaUBKTNV-1" vertex="1"><mxGeometry x="1340" y="-810" width="130" height="30" as="geometry"/></mxCell><mxCell id="wbVIC9EBPA2nQBpxtLBb-121" value="Workshop" style="text;html=1;strokeColor=none;fillColor=none;align=center;verticalAlign=middle;whiteSpace=wrap;rounded=0;" parent="WIyWlLk6GJQsqaUBKTNV-1" vertex="1"><mxGeometry x="1340" y="-810" width="130" height="30" as="geometry"/></mxCell><mxCell id="wbVIC9EBPA2nQBpxtLBb-122" value="" style="rounded=0;whiteSpace=wrap;html=1;" parent="WIyWlLk6GJQsqaUBKTNV-1" vertex="1"><mxGeometry x="1340" y="-755" width="130" height="30" as="geometry"/></mxCell><mxCell id="wbVIC9EBPA2nQBpxtLBb-123" value="Empty" style="text;html=1;strokeColor=none;fillColor=none;align=center;verticalAlign=middle;whiteSpace=wrap;rounded=0;" parent="WIyWlLk6GJQsqaUBKTNV-1" vertex="1"><mxGeometry x="1340" y="-755" width="130" height="30" as="geometry"/></mxCell><mxCell id="wbVIC9EBPA2nQBpxtLBb-124" style="edgeStyle=orthogonalEdgeStyle;rounded=0;orthogonalLoop=1;jettySize=auto;html=1;entryX=0;entryY=0.5;entryDx=0;entryDy=0;fillColor=#f8cecc;strokeColor=#b85450;" parent="WIyWlLk6GJQsqaUBKTNV-1" target="wbVIC9EBPA2nQBpxtLBb-121" edge="1"><mxGeometry relative="1" as="geometry"><mxPoint x="1230" y="-824" as="sourcePoint"/><mxPoint x="1271" y="-323" as="targetPoint"/></mxGeometry></mxCell><mxCell id="wbVIC9EBPA2nQBpxtLBb-125" style="edgeStyle=orthogonalEdgeStyle;rounded=0;orthogonalLoop=1;jettySize=auto;html=1;entryX=0;entryY=0.5;entryDx=0;entryDy=0;exitX=0.998;exitY=0.059;exitDx=0;exitDy=0;exitPerimeter=0;fillColor=#f8cecc;strokeColor=#b85450;" parent="WIyWlLk6GJQsqaUBKTNV-1" source="wbVIC9EBPA2nQBpxtLBb-83" target="wbVIC9EBPA2nQBpxtLBb-123" edge="1"><mxGeometry relative="1" as="geometry"><mxPoint x="1230" y="-829" as="sourcePoint"/><mxPoint x="1339" y="-800" as="targetPoint"/></mxGeometry></mxCell><mxCell id="wbVIC9EBPA2nQBpxtLBb-126" value="GUIHandler" style="swimlane;fontStyle=0;childLayout=stackLayout;horizontal=1;startSize=30;horizontalStack=0;resizeParent=1;resizeParentMax=0;resizeLast=0;collapsible=1;marginBottom=0;whiteSpace=wrap;html=1;" parent="WIyWlLk6GJQsqaUBKTNV-1" vertex="1"><mxGeometry x="-50" y="300" width="140" height="120" as="geometry"/></mxCell><mxCell id="8" value="_Ready()" style="text;strokeColor=none;fillColor=none;align=left;verticalAlign=middle;spacingLeft=4;spacingRight=4;overflow=hidden;points=[[0,0.5],[1,0.5]];portConstraint=eastwest;rotatable=0;whiteSpace=wrap;html=1;" parent="wbVIC9EBPA2nQBpxtLBb-126" vertex="1"><mxGeometry y="30" width="140" height="30" as="geometry"/></mxCell><mxCell id="1GrqpjJh9WKI_dPxwYut-2" value="ToGUIEventHappened()" style="text;strokeColor=none;fillColor=none;align=left;verticalAlign=middle;spacingLeft=4;spacingRight=4;overflow=hidden;points=[[0,0.5],[1,0.5]];portConstraint=eastwest;rotatable=0;whiteSpace=wrap;html=1;" parent="wbVIC9EBPA2nQBpxtLBb-126" vertex="1"><mxGeometry y="60" width="140" height="30" as="geometry"/></mxCell><mxCell id="wbVIC9EBPA2nQBpxtLBb-127" value="GUIEventHappened()" style="text;strokeColor=none;fillColor=none;align=left;verticalAlign=middle;spacingLeft=4;spacingRight=4;overflow=hidden;points=[[0,0.5],[1,0.5]];portConstraint=eastwest;rotatable=0;whiteSpace=wrap;html=1;" parent="wbVIC9EBPA2nQBpxtLBb-126" vertex="1"><mxGeometry y="90" width="140" height="30" as="geometry"/></mxCell><mxCell id="wbVIC9EBPA2nQBpxtLBb-130" style="edgeStyle=orthogonalEdgeStyle;rounded=0;orthogonalLoop=1;jettySize=auto;html=1;exitX=1;exitY=0.5;exitDx=0;exitDy=0;entryX=0;entryY=0.5;entryDx=0;entryDy=0;" parent="WIyWlLk6GJQsqaUBKTNV-1" source="wbVIC9EBPA2nQBpxtLBb-127" target="wbVIC9EBPA2nQBpxtLBb-14" edge="1"><mxGeometry relative="1" as="geometry"><Array as="points"><mxPoint x="260" y="405"/><mxPoint x="260" y="330"/></Array></mxGeometry></mxCell><mxCell id="wbVIC9EBPA2nQBpxtLBb-131" value="" style="rounded=0;whiteSpace=wrap;html=1;fillColor=#f8cecc;strokeColor=#b85450;" parent="WIyWlLk6GJQsqaUBKTNV-1" vertex="1"><mxGeometry x="-1120" y="520" width="130" height="30" as="geometry"/></mxCell><mxCell id="wbVIC9EBPA2nQBpxtLBb-134" style="edgeStyle=orthogonalEdgeStyle;rounded=0;orthogonalLoop=1;jettySize=auto;html=1;exitX=1;exitY=0.5;exitDx=0;exitDy=0;entryX=0;entryY=0.5;entryDx=0;entryDy=0;fillColor=#f8cecc;strokeColor=#b85450;" parent="WIyWlLk6GJQsqaUBKTNV-1" source="wbVIC9EBPA2nQBpxtLBb-132" target="7" edge="1"><mxGeometry relative="1" as="geometry"/></mxCell><mxCell id="wbVIC9EBPA2nQBpxtLBb-132" value="Event" style="text;html=1;strokeColor=#b85450;fillColor=#f8cecc;align=center;verticalAlign=middle;whiteSpace=wrap;rounded=0;" parent="WIyWlLk6GJQsqaUBKTNV-1" vertex="1"><mxGeometry x="-1120" y="520" width="130" height="30" as="geometry"/></mxCell><mxCell id="wbVIC9EBPA2nQBpxtLBb-133" style="edgeStyle=orthogonalEdgeStyle;rounded=0;orthogonalLoop=1;jettySize=auto;html=1;exitX=1;exitY=0.5;exitDx=0;exitDy=0;entryX=0;entryY=0.5;entryDx=0;entryDy=0;" parent="WIyWlLk6GJQsqaUBKTNV-1" source="wbVIC9EBPA2nQBpxtLBb-14" target="wbVIC9EBPA2nQBpxtLBb-6" edge="1"><mxGeometry relative="1" as="geometry"/></mxCell><mxCell id="wbVIC9EBPA2nQBpxtLBb-138" style="edgeStyle=orthogonalEdgeStyle;rounded=0;orthogonalLoop=1;jettySize=auto;html=1;exitX=1;exitY=0.5;exitDx=0;exitDy=0;entryX=0;entryY=0.5;entryDx=0;entryDy=0;" parent="WIyWlLk6GJQsqaUBKTNV-1" source="wbVIC9EBPA2nQBpxtLBb-135" target="wbVIC9EBPA2nQBpxtLBb-132" edge="1"><mxGeometry relative="1" as="geometry"/></mxCell><mxCell id="wbVIC9EBPA2nQBpxtLBb-135" value="GUIAddInput" style="rounded=0;whiteSpace=wrap;html=1;" parent="WIyWlLk6GJQsqaUBKTNV-1" vertex="1"><mxGeometry x="-1350" y="470" width="120" height="30" as="geometry"/></mxCell><mxCell id="wbVIC9EBPA2nQBpxtLBb-137" style="edgeStyle=orthogonalEdgeStyle;rounded=0;orthogonalLoop=1;jettySize=auto;html=1;exitX=1;exitY=0.5;exitDx=0;exitDy=0;entryX=0;entryY=0.5;entryDx=0;entryDy=0;" parent="WIyWlLk6GJQsqaUBKTNV-1" source="wbVIC9EBPA2nQBpxtLBb-136" target="wbVIC9EBPA2nQBpxtLBb-132" edge="1"><mxGeometry relative="1" as="geometry"><mxPoint x="-1230" y="565" as="sourcePoint"/></mxGeometry></mxCell><mxCell id="wbVIC9EBPA2nQBpxtLBb-136" value="etc" style="rounded=0;whiteSpace=wrap;html=1;" parent="WIyWlLk6GJQsqaUBKTNV-1" vertex="1"><mxGeometry x="-1350" y="550" width="120" height="30" as="geometry"/></mxCell><mxCell id="1GrqpjJh9WKI_dPxwYut-3" style="edgeStyle=orthogonalEdgeStyle;rounded=0;orthogonalLoop=1;jettySize=auto;html=1;entryX=1;entryY=0.5;entryDx=0;entryDy=0;" parent="WIyWlLk6GJQsqaUBKTNV-1" source="1GrqpjJh9WKI_dPxwYut-0" target="1GrqpjJh9WKI_dPxwYut-2" edge="1"><mxGeometry relative="1" as="geometry"/></mxCell><mxCell id="1GrqpjJh9WKI_dPxwYut-4" style="edgeStyle=orthogonalEdgeStyle;rounded=0;orthogonalLoop=1;jettySize=auto;html=1;entryX=1;entryY=0.5;entryDx=0;entryDy=0;exitX=0;exitY=0.5;exitDx=0;exitDy=0;" parent="WIyWlLk6GJQsqaUBKTNV-1" source="1GrqpjJh9WKI_dPxwYut-1" target="1GrqpjJh9WKI_dPxwYut-0" edge="1"><mxGeometry relative="1" as="geometry"><Array as="points"><mxPoint x="1040" y="305"/><mxPoint x="1040" y="430"/><mxPoint x="650" y="430"/><mxPoint x="650" y="300"/></Array></mxGeometry></mxCell><mxCell id="31" style="edgeStyle=orthogonalEdgeStyle;rounded=0;orthogonalLoop=1;jettySize=auto;html=1;entryX=0;entryY=0.25;entryDx=0;entryDy=0;exitX=0.997;exitY=0.114;exitDx=0;exitDy=0;exitPerimeter=0;fillColor=#f8cecc;strokeColor=#b85450;" parent="WIyWlLk6GJQsqaUBKTNV-1" source="0" target="25" edge="1"><mxGeometry relative="1" as="geometry"><Array as="points"><mxPoint x="-710" y="444"/><mxPoint x="-710" y="415"/></Array></mxGeometry></mxCell><mxCell id="0" value="GUIHandler" style="swimlane;fontStyle=0;childLayout=stackLayout;horizontal=1;startSize=30;horizontalStack=0;resizeParent=1;resizeParentMax=0;resizeLast=0;collapsible=1;marginBottom=0;whiteSpace=wrap;html=1;fillColor=#f8cecc;strokeColor=#b85450;" parent="WIyWlLk6GJQsqaUBKTNV-1" vertex="1"><mxGeometry x="-920" y="430" width="180" height="120" as="geometry"/></mxCell><mxCell id="1" value="Init()" style="text;strokeColor=none;fillColor=none;align=left;verticalAlign=middle;spacingLeft=4;spacingRight=4;overflow=hidden;points=[[0,0.5],[1,0.5]];portConstraint=eastwest;rotatable=0;whiteSpace=wrap;html=1;" parent="0" vertex="1"><mxGeometry y="30" width="180" height="30" as="geometry"/></mxCell><mxCell id="5" value="ToGUIHandleEvent()" style="text;strokeColor=none;fillColor=none;align=left;verticalAlign=middle;spacingLeft=4;spacingRight=4;overflow=hidden;points=[[0,0.5],[1,0.5]];portConstraint=eastwest;rotatable=0;whiteSpace=wrap;html=1;" parent="0" vertex="1"><mxGeometry y="60" width="180" height="30" as="geometry"/></mxCell><mxCell id="7" value="InvokeGUIEvent(@event)" style="text;strokeColor=none;fillColor=none;align=left;verticalAlign=middle;spacingLeft=4;spacingRight=4;overflow=hidden;points=[[0,0.5],[1,0.5]];portConstraint=eastwest;rotatable=0;whiteSpace=wrap;html=1;" parent="0" vertex="1"><mxGeometry y="90" width="180" height="30" as="geometry"/></mxCell><mxCell id="9" style="edgeStyle=orthogonalEdgeStyle;rounded=0;orthogonalLoop=1;jettySize=auto;html=1;exitX=0;exitY=0.5;exitDx=0;exitDy=0;entryX=1;entryY=0.5;entryDx=0;entryDy=0;" parent="WIyWlLk6GJQsqaUBKTNV-1" source="8" target="20" edge="1"><mxGeometry relative="1" as="geometry"><Array as="points"><mxPoint x="-80" y="345"/><mxPoint x="-80" y="335"/></Array></mxGeometry></mxCell><mxCell id="10" style="edgeStyle=orthogonalEdgeStyle;rounded=0;orthogonalLoop=1;jettySize=auto;html=1;exitX=0;exitY=0.5;exitDx=0;exitDy=0;entryX=1;entryY=0.5;entryDx=0;entryDy=0;" parent="WIyWlLk6GJQsqaUBKTNV-1" source="1GrqpjJh9WKI_dPxwYut-2" target="20" edge="1"><mxGeometry relative="1" as="geometry"><Array as="points"><mxPoint x="-110" y="375"/><mxPoint x="-110" y="335"/></Array></mxGeometry></mxCell><mxCell id="11" style="edgeStyle=orthogonalEdgeStyle;rounded=0;orthogonalLoop=1;jettySize=auto;html=1;exitX=1;exitY=0.5;exitDx=0;exitDy=0;entryX=0;entryY=0.5;entryDx=0;entryDy=0;" parent="WIyWlLk6GJQsqaUBKTNV-1" source="7" target="wbVIC9EBPA2nQBpxtLBb-127" edge="1"><mxGeometry relative="1" as="geometry"><Array as="points"><mxPoint x="-130" y="535"/><mxPoint x="-130" y="405"/></Array></mxGeometry></mxCell><mxCell id="17" style="edgeStyle=orthogonalEdgeStyle;rounded=0;orthogonalLoop=1;jettySize=auto;html=1;exitX=1;exitY=0.5;exitDx=0;exitDy=0;entryX=0;entryY=0.25;entryDx=0;entryDy=0;" parent="WIyWlLk6GJQsqaUBKTNV-1" source="wbVIC9EBPA2nQBpxtLBb-6" target="13" edge="1"><mxGeometry relative="1" as="geometry"><mxPoint x="720" y="30" as="targetPoint"/><Array as="points"><mxPoint x="740" y="210"/><mxPoint x="740" y="55"/></Array></mxGeometry></mxCell><mxCell id="13" value="SelectionBoxHandler" style="swimlane;fontStyle=0;childLayout=stackLayout;horizontal=1;startSize=30;horizontalStack=0;resizeParent=1;resizeParentMax=0;resizeLast=0;collapsible=1;marginBottom=0;whiteSpace=wrap;html=1;" parent="WIyWlLk6GJQsqaUBKTNV-1" vertex="1"><mxGeometry x="800" y="40" width="140" height="60" as="geometry"/></mxCell><mxCell id="14" value="SelectUnits()" style="text;strokeColor=none;fillColor=none;align=left;verticalAlign=middle;spacingLeft=4;spacingRight=4;overflow=hidden;points=[[0,0.5],[1,0.5]];portConstraint=eastwest;rotatable=0;whiteSpace=wrap;html=1;" parent="13" vertex="1"><mxGeometry y="30" width="140" height="30" as="geometry"/></mxCell><mxCell id="16" style="edgeStyle=orthogonalEdgeStyle;rounded=0;orthogonalLoop=1;jettySize=auto;html=1;entryX=1.024;entryY=0.246;entryDx=0;entryDy=0;exitX=0.003;exitY=0.071;exitDx=0;exitDy=0;exitPerimeter=0;fillColor=#f8cecc;strokeColor=#b85450;entryPerimeter=0;" parent="WIyWlLk6GJQsqaUBKTNV-1" source="wbVIC9EBPA2nQBpxtLBb-35" target="13" edge="1"><mxGeometry relative="1" as="geometry"><mxPoint x="1108.7400000000002" y="107.03999999999996" as="sourcePoint"/><mxPoint x="950" y="155" as="targetPoint"/></mxGeometry></mxCell><mxCell id="19" value="" style="rounded=0;whiteSpace=wrap;html=1;" parent="WIyWlLk6GJQsqaUBKTNV-1" vertex="1"><mxGeometry x="-390" y="320" width="130" height="30" as="geometry"/></mxCell><mxCell id="20" value="CallStack" style="text;html=1;strokeColor=none;fillColor=none;align=center;verticalAlign=middle;whiteSpace=wrap;rounded=0;" parent="WIyWlLk6GJQsqaUBKTNV-1" vertex="1"><mxGeometry x="-390" y="320" width="130" height="30" as="geometry"/></mxCell><mxCell id="21" style="edgeStyle=orthogonalEdgeStyle;rounded=0;orthogonalLoop=1;jettySize=auto;html=1;exitX=1;exitY=0.5;exitDx=0;exitDy=0;entryX=0;entryY=0.25;entryDx=0;entryDy=0;" parent="WIyWlLk6GJQsqaUBKTNV-1" source="wbVIC9EBPA2nQBpxtLBb-6" target="wbVIC9EBPA2nQBpxtLBb-41" edge="1"><mxGeometry relative="1" as="geometry"><mxPoint x="720" y="220" as="sourcePoint"/><mxPoint x="810" y="65" as="targetPoint"/><Array as="points"><mxPoint x="740" y="210"/><mxPoint x="740" y="145"/></Array></mxGeometry></mxCell><mxCell id="22" style="edgeStyle=orthogonalEdgeStyle;rounded=0;orthogonalLoop=1;jettySize=auto;html=1;exitX=1;exitY=0.5;exitDx=0;exitDy=0;entryX=0;entryY=0.25;entryDx=0;entryDy=0;" parent="WIyWlLk6GJQsqaUBKTNV-1" source="wbVIC9EBPA2nQBpxtLBb-6" target="wbVIC9EBPA2nQBpxtLBb-56" edge="1"><mxGeometry relative="1" as="geometry"><mxPoint x="720" y="220" as="sourcePoint"/><mxPoint x="810" y="155" as="targetPoint"/><Array as="points"><mxPoint x="740" y="210"/><mxPoint x="740" y="245"/></Array></mxGeometry></mxCell><mxCell id="35" style="edgeStyle=orthogonalEdgeStyle;rounded=0;orthogonalLoop=1;jettySize=auto;html=1;exitX=1;exitY=0.25;exitDx=0;exitDy=0;entryX=0;entryY=0.5;entryDx=0;entryDy=0;" parent="WIyWlLk6GJQsqaUBKTNV-1" source="23" target="20" edge="1"><mxGeometry relative="1" as="geometry"/></mxCell><mxCell id="23" value="GUICountryInfo" style="swimlane;fontStyle=0;childLayout=stackLayout;horizontal=1;startSize=30;horizontalStack=0;resizeParent=1;resizeParentMax=0;resizeLast=0;collapsible=1;marginBottom=0;whiteSpace=wrap;html=1;" parent="WIyWlLk6GJQsqaUBKTNV-1" vertex="1"><mxGeometry x="-670" y="305" width="140" height="60" as="geometry"/></mxCell><mxCell id="39" style="edgeStyle=orthogonalEdgeStyle;rounded=0;orthogonalLoop=1;jettySize=auto;html=1;exitX=1;exitY=0.25;exitDx=0;exitDy=0;entryX=0;entryY=0.5;entryDx=0;entryDy=0;" parent="WIyWlLk6GJQsqaUBKTNV-1" source="25" target="20" edge="1"><mxGeometry relative="1" as="geometry"/></mxCell><mxCell id="25" value="GUITimeWindow" style="swimlane;fontStyle=0;childLayout=stackLayout;horizontal=1;startSize=30;horizontalStack=0;resizeParent=1;resizeParentMax=0;resizeLast=0;collapsible=1;marginBottom=0;whiteSpace=wrap;html=1;" parent="WIyWlLk6GJQsqaUBKTNV-1" vertex="1"><mxGeometry x="-670" y="400" width="140" height="60" as="geometry"/></mxCell><mxCell id="38" style="edgeStyle=orthogonalEdgeStyle;rounded=0;orthogonalLoop=1;jettySize=auto;html=1;exitX=1;exitY=0.25;exitDx=0;exitDy=0;entryX=0;entryY=0.5;entryDx=0;entryDy=0;" parent="WIyWlLk6GJQsqaUBKTNV-1" source="27" target="20" edge="1"><mxGeometry relative="1" as="geometry"/></mxCell><mxCell id="27" value="GUIProvinceWindow" style="swimlane;fontStyle=0;childLayout=stackLayout;horizontal=1;startSize=30;horizontalStack=0;resizeParent=1;resizeParentMax=0;resizeLast=0;collapsible=1;marginBottom=0;whiteSpace=wrap;html=1;" parent="WIyWlLk6GJQsqaUBKTNV-1" vertex="1"><mxGeometry x="-670" y="225" width="140" height="60" as="geometry"/></mxCell><mxCell id="42" style="edgeStyle=orthogonalEdgeStyle;rounded=0;orthogonalLoop=1;jettySize=auto;html=1;exitX=1;exitY=0.25;exitDx=0;exitDy=0;entryX=0;entryY=0.5;entryDx=0;entryDy=0;" parent="WIyWlLk6GJQsqaUBKTNV-1" source="29" target="20" edge="1"><mxGeometry relative="1" as="geometry"/></mxCell><mxCell id="29" value="GUIMiniMapWindow" style="swimlane;fontStyle=0;childLayout=stackLayout;horizontal=1;startSize=30;horizontalStack=0;resizeParent=1;resizeParentMax=0;resizeLast=0;collapsible=1;marginBottom=0;whiteSpace=wrap;html=1;" parent="WIyWlLk6GJQsqaUBKTNV-1" vertex="1"><mxGeometry x="-670" y="135" width="140" height="60" as="geometry"/></mxCell><mxCell id="32" style="edgeStyle=orthogonalEdgeStyle;rounded=0;orthogonalLoop=1;jettySize=auto;html=1;entryX=0;entryY=0.25;entryDx=0;entryDy=0;exitX=1.004;exitY=0.114;exitDx=0;exitDy=0;exitPerimeter=0;fillColor=#f8cecc;strokeColor=#b85450;" parent="WIyWlLk6GJQsqaUBKTNV-1" source="0" target="23" edge="1"><mxGeometry relative="1" as="geometry"><mxPoint x="-730.54" y="458.67999999999984" as="sourcePoint"/><mxPoint x="-660" y="430" as="targetPoint"/><Array as="points"><mxPoint x="-710" y="444"/><mxPoint x="-710" y="320"/></Array></mxGeometry></mxCell><mxCell id="33" style="edgeStyle=orthogonalEdgeStyle;rounded=0;orthogonalLoop=1;jettySize=auto;html=1;fillColor=#f8cecc;strokeColor=#b85450;exitX=1;exitY=0.114;exitDx=0;exitDy=0;exitPerimeter=0;entryX=0;entryY=0.25;entryDx=0;entryDy=0;" parent="WIyWlLk6GJQsqaUBKTNV-1" source="0" target="27" edge="1"><mxGeometry relative="1" as="geometry"><mxPoint x="-739" y="444" as="sourcePoint"/><mxPoint x="-670" y="240" as="targetPoint"/><Array as="points"><mxPoint x="-710" y="444"/><mxPoint x="-710" y="240"/></Array></mxGeometry></mxCell><mxCell id="34" style="edgeStyle=orthogonalEdgeStyle;rounded=0;orthogonalLoop=1;jettySize=auto;html=1;fillColor=#f8cecc;strokeColor=#b85450;exitX=1;exitY=0.114;exitDx=0;exitDy=0;exitPerimeter=0;" parent="WIyWlLk6GJQsqaUBKTNV-1" target="29" edge="1"><mxGeometry relative="1" as="geometry"><mxPoint x="-740" y="443.67999999999984" as="sourcePoint"/><mxPoint x="-670" y="240" as="targetPoint"/><Array as="points"><mxPoint x="-710" y="444"/><mxPoint x="-710" y="150"/></Array></mxGeometry></mxCell><mxCell id="66" style="edgeStyle=orthogonalEdgeStyle;rounded=0;orthogonalLoop=1;jettySize=auto;html=1;exitX=0;exitY=0;exitDx=0;exitDy=0;entryX=1.006;entryY=0.135;entryDx=0;entryDy=0;entryPerimeter=0;" edge="1" parent="WIyWlLk6GJQsqaUBKTNV-1" source="43" target="55"><mxGeometry relative="1" as="geometry"/></mxCell><mxCell id="43" value="IProvinceData" style="swimlane;fontStyle=0;childLayout=stackLayout;horizontal=1;startSize=30;horizontalStack=0;resizeParent=1;resizeParentMax=0;resizeLast=0;collapsible=1;marginBottom=0;whiteSpace=wrap;html=1;" vertex="1" parent="WIyWlLk6GJQsqaUBKTNV-1"><mxGeometry x="670" y="-890" width="140" height="120" as="geometry"/></mxCell><mxCell id="44" value="Id" style="text;strokeColor=none;fillColor=none;align=left;verticalAlign=middle;spacingLeft=4;spacingRight=4;overflow=hidden;points=[[0,0.5],[1,0.5]];portConstraint=eastwest;rotatable=0;whiteSpace=wrap;html=1;" vertex="1" parent="43"><mxGeometry y="30" width="140" height="30" as="geometry"/></mxCell><mxCell id="45" value="Name" style="text;strokeColor=none;fillColor=none;align=left;verticalAlign=middle;spacingLeft=4;spacingRight=4;overflow=hidden;points=[[0,0.5],[1,0.5]];portConstraint=eastwest;rotatable=0;whiteSpace=wrap;html=1;" vertex="1" parent="43"><mxGeometry y="60" width="140" height="30" as="geometry"/></mxCell><mxCell id="46" value="Modifiers" style="text;strokeColor=none;fillColor=none;align=left;verticalAlign=middle;spacingLeft=4;spacingRight=4;overflow=hidden;points=[[0,0.5],[1,0.5]];portConstraint=eastwest;rotatable=0;whiteSpace=wrap;html=1;" vertex="1" parent="43"><mxGeometry y="90" width="140" height="30" as="geometry"/></mxCell><mxCell id="54" style="edgeStyle=orthogonalEdgeStyle;rounded=0;orthogonalLoop=1;jettySize=auto;html=1;entryX=1.013;entryY=0.044;entryDx=0;entryDy=0;entryPerimeter=0;exitX=-0.008;exitY=0.146;exitDx=0;exitDy=0;exitPerimeter=0;" edge="1" parent="WIyWlLk6GJQsqaUBKTNV-1" source="43" target="wbVIC9EBPA2nQBpxtLBb-68"><mxGeometry relative="1" as="geometry"/></mxCell><mxCell id="67" style="edgeStyle=orthogonalEdgeStyle;rounded=0;orthogonalLoop=1;jettySize=auto;html=1;exitX=0;exitY=0;exitDx=0;exitDy=0;entryX=1;entryY=0.5;entryDx=0;entryDy=0;" edge="1" parent="WIyWlLk6GJQsqaUBKTNV-1" source="55" target="wbVIC9EBPA2nQBpxtLBb-64"><mxGeometry relative="1" as="geometry"/></mxCell><mxCell id="55" value="SeaProvinceData" style="swimlane;fontStyle=0;childLayout=stackLayout;horizontal=1;startSize=30;horizontalStack=0;resizeParent=1;resizeParentMax=0;resizeLast=0;collapsible=1;marginBottom=0;whiteSpace=wrap;html=1;" vertex="1" parent="WIyWlLk6GJQsqaUBKTNV-1"><mxGeometry x="470" y="-1010" width="140" height="120" as="geometry"/></mxCell><mxCell id="56" value="Id" style="text;strokeColor=none;fillColor=none;align=left;verticalAlign=middle;spacingLeft=4;spacingRight=4;overflow=hidden;points=[[0,0.5],[1,0.5]];portConstraint=eastwest;rotatable=0;whiteSpace=wrap;html=1;" vertex="1" parent="55"><mxGeometry y="30" width="140" height="30" as="geometry"/></mxCell><mxCell id="57" value="Name" style="text;strokeColor=none;fillColor=none;align=left;verticalAlign=middle;spacingLeft=4;spacingRight=4;overflow=hidden;points=[[0,0.5],[1,0.5]];portConstraint=eastwest;rotatable=0;whiteSpace=wrap;html=1;" vertex="1" parent="55"><mxGeometry y="60" width="140" height="30" as="geometry"/></mxCell><mxCell id="65" value="Modifiers" style="text;strokeColor=none;fillColor=none;align=left;verticalAlign=middle;spacingLeft=4;spacingRight=4;overflow=hidden;points=[[0,0.5],[1,0.5]];portConstraint=eastwest;rotatable=0;whiteSpace=wrap;html=1;" vertex="1" parent="55"><mxGeometry y="90" width="140" height="30" as="geometry"/></mxCell></root></mxGraphModel></diagram></mxfile>